<?xml version="1.0" encoding="utf-8"?>
<!-- Generator: Adobe Illustrator 27.5.0, SVG Export Plug-In . SVG Version: 6.00 Build 0)  -->
<svg version="1.1" xmlns="http://www.w3.org/2000/svg" xmlns:xlink="http://www.w3.org/1999/xlink" x="0px" y="0px"
	 viewBox="0 0 1200 1200" style="enable-background:new 0 0 1200 1200;" xml:space="preserve">
<g id="Background">
	<rect style="fill:#F5F4F3;" width="1200" height="1200"/>
</g>
<g id="Graphic_Elements">
	<g id="Graphic_Elements_1_">
		
			<path style="fill:none;stroke:#000000;stroke-width:19.4992;stroke-linecap:round;stroke-linejoin:round;stroke-miterlimit:10;" d="
			M531.922,481.498c0.232-33.526,27.281-60.592,60.659-60.994c34.434-0.415,62.414,28.792,62.176,63.227l-0.268,38.75
			c-0.078,11.355-5.775,21.934-15.212,28.249l-31.537,21.104c-9.437,6.315-15.134,16.894-15.212,28.249l-0.299,43.27"/>
		
			<path style="fill:none;stroke:#000000;stroke-width:19.4992;stroke-linecap:round;stroke-linejoin:round;stroke-miterlimit:10;" d="
			M497.111,759.796c0.354-51.204,23.75-112.398,93.491-111.916c76.056,0.526,92.289,61.994,91.934,113.198"/>
		<g>
			<path d="M166.032,842.074c1.377,0.009,2.775-0.106,4.18-0.354l336.88-59.27l0.34-31.678l1.51-14.961l-346.721,60.758
				c-12.467,2.206-20.786,14.102-18.581,26.57C145.599,834.203,155.186,841.999,166.032,842.074z"/>
		</g>
		<g>
			<path d="M1014.013,842.074c-1.377,0.009-2.775-0.106-4.18-0.354l-336.88-59.27l-0.34-31.678l-1.147-14.961l346.358,60.758
				c12.467,2.206,20.786,14.102,18.581,26.57C1034.446,834.203,1024.86,841.999,1014.013,842.074z"/>
		</g>
	</g>
</g>
<g id="Text">
	<text transform="matrix(1 0 0 1 309.7059 940.5227)" style="font-family:'Asap-Regular'; font-size:54px; letter-spacing:1;">THE  STYLE  NEVER  DIES</text>
	<path id="SVGID_x5F_1_x5F_" style="fill:none;" d="M143,781c0-246.871,200.129-447,447-447s447,200.129,447,447"/>
	<text>	<textPath  xlink:href="#SVGID_x5F_1_x5F_" startOffset="3.244%">
<tspan  style="font-family:'Asap-Bold'; font-size:150px; letter-spacing:30;">STARLIGHT</tspan>	</textPath>
</text>
</g>
</svg>
